<svg width="16.666626" height="20.000000" viewBox="0 0 16.6666 20" fill="none" xmlns="http://www.w3.org/2000/svg" xmlns:xlink="http://www.w3.org/1999/xlink">
	<desc>
			Created with Pixso.
	</desc>
	<defs/>
	<path id="Vector" d="M11.991 0C10.9508 0.0737305 9.73486 0.756226 9.02637 1.64502C8.38 2.45117 7.84839 3.64868 8.05566 4.8125C9.19226 4.84875 10.3666 4.1499 11.0471 3.24622C11.6837 2.40503 12.1654 1.21497 11.991 0Z" fill="#3C4EF3" fill-opacity="1.000000" fill-rule="nonzero"/>
	<path id="Vector" d="M16.1019 6.70996C15.1031 5.42627 13.6995 4.68127 12.3739 4.68127C10.6239 4.68127 9.88367 5.54004 8.66785 5.54004C7.41418 5.54004 6.46167 4.68372 4.94836 4.68372C3.46167 4.68372 1.87878 5.61499 0.875122 7.20752C-0.535767 9.44995 -0.294312 13.6661 1.99219 17.2573C2.81055 18.5424 3.9032 19.9873 5.3324 19.9999C6.60437 20.0123 6.96289 19.1636 8.68616 19.1549C10.4093 19.1449 10.7361 20.0111 12.0056 19.9973C13.436 19.9861 14.5885 18.3849 15.4069 17.0999C15.9934 16.1786 16.2117 15.7148 16.6666 14.6749C13.358 13.3837 12.8275 8.56128 16.1019 6.70996Z" fill="#3C4EF3" fill-opacity="1.000000" fill-rule="nonzero"/>
</svg>
