<svg width="19.166748" height="20.000000" viewBox="0 0 19.1667 20" fill="none" xmlns="http://www.w3.org/2000/svg" xmlns:xlink="http://www.w3.org/1999/xlink">
	<desc>
			Created with Pixso.
	</desc>
	<defs/>
	<path id="Vector" d="M17.6603 7.93311L15.2727 6.64014L12.3955 9.95105L15.3275 13.3303L17.6591 12.0685C18.6326 11.5422 19.1667 10.8054 19.1667 9.99915C19.1667 9.19275 18.6338 8.46021 17.6603 7.93311Z" fill="#3C4EF3" fill-opacity="1.000000" fill-rule="nonzero"/>
	<path id="Vector" d="M2.19128 20L10.9232 9.9519L2.302 0.0128174C2.27454 0.0117188 2.24609 0 2.21863 0C0.891357 0 0 1.01062 0 2.51636L0 17.4879C0.00231934 18.9797 0.882202 19.985 2.19128 20Z" fill="#3C4EF3" fill-opacity="1.000000" fill-rule="nonzero"/>
	<path id="Vector" d="M14.2693 6.1012L4.44519 0.78418L11.6604 9.10303L14.2693 6.1012Z" fill="#3C4EF3" fill-opacity="1.000000" fill-rule="nonzero"/>
	<path id="Vector" d="M11.6594 10.7979L4.25366 19.322L14.3254 13.8713L11.6594 10.7979Z" fill="#3C4EF3" fill-opacity="1.000000" fill-rule="nonzero"/>
</svg>
