<svg width="110.000000" height="36.000000" viewBox="0 0 110 36" fill="none" xmlns="http://www.w3.org/2000/svg" xmlns:xlink="http://www.w3.org/1999/xlink">
	<desc>
			Created with Pixso.
	</desc>
	<defs/>
	<path id="Kreed" d="M49.9922 26L43.5352 18.5352L43.5352 26L40.7988 26L40.7988 9.31836L43.5352 9.31836L43.5352 16.9297L50.0156 9.31836L53.4492 9.31836L46.2012 17.6738L53.5664 26L49.9922 26ZM58.7272 14.6973Q59.3307 13.6895 60.3268 13.127Q61.3229 12.5586 62.6881 12.5586L62.6881 15.3945L61.9908 15.3945Q60.3854 15.3945 59.5533 16.209Q58.7272 17.0234 58.7272 19.0391L58.7272 26L55.9908 26L55.9908 12.7754L58.7272 12.7754L58.7272 14.6973ZM77.3299 19.0625Q77.3299 19.8066 77.2303 20.4102L67.1287 20.4102Q67.2459 21.9922 68.3006 22.9531Q69.3611 23.9141 70.8963 23.9141Q73.1053 23.9141 74.0135 22.0625L76.9666 22.0625Q76.3689 23.8906 74.7928 25.0566Q73.2225 26.2168 70.8963 26.2168Q68.9978 26.2168 67.4978 25.3672Q65.9978 24.5117 65.1482 22.9648Q64.2986 21.418 64.2986 19.3789Q64.2986 17.334 65.1248 15.7871Q65.951 14.2402 67.451 13.4023Q68.951 12.5586 70.8963 12.5586Q72.7654 12.5586 74.2303 13.3789Q75.6951 14.1934 76.5096 15.6699Q77.3299 17.1465 77.3299 19.0625ZM74.4705 18.2012Q74.4471 16.6895 73.3924 15.7754Q72.3377 14.8613 70.7732 14.8613Q69.3611 14.8613 68.3533 15.7637Q67.3455 16.666 67.1521 18.2012L74.4705 18.2012ZM92.1379 19.0625Q92.1379 19.8066 92.0383 20.4102L81.9367 20.4102Q82.0539 21.9922 83.1086 22.9531Q84.1691 23.9141 85.7043 23.9141Q87.9133 23.9141 88.8215 22.0625L91.7746 22.0625Q91.1769 23.8906 89.6008 25.0566Q88.0305 26.2168 85.7043 26.2168Q83.8058 26.2168 82.3058 25.3672Q80.8058 24.5117 79.9562 22.9648Q79.1066 21.418 79.1066 19.3789Q79.1066 17.334 79.9328 15.7871Q80.759 14.2402 82.259 13.4023Q83.759 12.5586 85.7043 12.5586Q87.5734 12.5586 89.0383 13.3789Q90.5031 14.1934 91.3176 15.6699Q92.1379 17.1465 92.1379 19.0625ZM89.2785 18.2012Q89.2551 16.6895 88.2004 15.7754Q87.1457 14.8613 85.5812 14.8613Q84.1691 14.8613 83.1613 15.7637Q82.1535 16.666 81.9601 18.2012L89.2785 18.2012ZM93.9146 19.3262Q93.9146 17.334 94.7408 15.7988Q95.567 14.2637 96.9967 13.4141Q98.4263 12.5586 100.178 12.5586Q101.473 12.5586 102.733 13.127Q103.993 13.6895 104.737 14.6211L104.737 8.24023L107.497 8.24023L107.497 26L104.737 26L104.737 24.0078Q104.063 24.9688 102.874 25.5957Q101.69 26.2168 100.155 26.2168Q98.4263 26.2168 96.9967 25.3438Q95.567 24.4648 94.7408 22.8945Q93.9146 21.3184 93.9146 19.3262ZM104.737 19.3789Q104.737 18.0078 104.169 17Q103.606 15.9922 102.692 15.4648Q101.784 14.9375 100.729 14.9375Q99.6744 14.9375 98.7603 15.4531Q97.8463 15.9688 97.2838 16.9648Q96.7213 17.9609 96.7213 19.3262Q96.7213 20.6973 97.2838 21.7285Q97.8463 22.7598 98.772 23.2988Q99.6978 23.8379 100.729 23.8379Q101.784 23.8379 102.692 23.3105Q103.606 22.7832 104.169 21.7637Q104.737 20.7441 104.737 19.3789Z" fill="#FFFFFF" fill-opacity="1.000000" fill-rule="evenodd"/>
	<rect id="Rectangle 63" y="3.000000" rx="6.000000" width="30.000000" height="30.000000" fill="#FFFFFF" fill-opacity="1.000000"/>
	<path id="K." d="M8.70947 12.2258L8.70947 23.6782C8.70947 24.2305 9.15723 24.6782 9.70947 24.6782L10.7612 24.6782C11.3135 24.6782 11.7612 24.2305 11.7612 23.6782L11.7612 12.2258C11.7612 11.6736 11.3135 11.2258 10.7612 11.2258L9.70947 11.2258C9.15723 11.2258 8.70947 11.6736 8.70947 12.2258ZM14.7139 11.9077L12.7393 17.7905C12.6665 18.0068 12.6699 18.2417 12.749 18.4558L14.8091 24.0251C14.9546 24.4175 15.3286 24.6782 15.7471 24.6782L16.6104 24.6782C17.3042 24.6782 17.7871 23.9888 17.5503 23.3367L15.7754 18.4519C15.6987 18.2402 15.6953 18.0085 15.7666 17.7949L17.5137 12.5413C17.729 11.894 17.2471 11.2258 16.5645 11.2258L15.6616 11.2258C15.2319 11.2258 14.8506 11.5002 14.7139 11.9077ZM19.1611 22.6831Q19.0112 22.9688 19.0112 23.333C19.0112 23.5635 19.0762 23.7876 19.2061 24.0056Q19.3721 24.2998 19.6201 24.4812Q20.02 24.7742 20.6348 24.7742C20.8945 24.7742 21.147 24.7166 21.3921 24.6013C21.9692 24.345 22.2578 23.9221 22.2578 23.333C22.2578 23.0767 22.1929 22.8396 22.063 22.6218C21.7603 22.1221 21.2837 21.8723 20.6348 21.8723C20.3604 21.8723 20.1006 21.9299 19.8555 22.0454Q19.3667 22.29 19.1611 22.6831Z" fill="#06331B" fill-opacity="1.000000" fill-rule="evenodd"/>
</svg>
