<svg width="107.000000" height="33.000000" viewBox="0 0 107 33" fill="none" xmlns="http://www.w3.org/2000/svg" xmlns:xlink="http://www.w3.org/1999/xlink">
	<desc>
			Created with Pixso.
	</desc>
	<defs/>
	<path id="Kreed" d="M54.1699 26L51.1699 26L45.5508 18.1016L43.8691 19.4961L43.8691 26L41.2793 26L41.2793 8.86133L43.8691 8.86133L43.8691 17.1465Q44.4961 16.4258 45.1172 15.6934Q45.7441 14.9609 46.3652 14.2402L51 8.86133L53.9766 8.86133L47.4258 16.3496L54.1699 26ZM62.5469 12.8223Q62.8809 12.8223 63.2735 12.8633Q63.6719 12.8984 63.959 12.9453L63.6953 15.3184Q63.0742 15.1543 62.4004 15.1543Q61.4395 15.1543 60.584 15.6348Q59.7344 16.1094 59.2188 17.0117Q58.7032 17.9141 58.7032 19.1855L58.7032 26L56.1602 26L56.1602 13.0625L58.1758 13.0625L58.5098 15.3652L58.6094 15.3652Q59.2305 14.334 60.2149 13.5781Q61.1992 12.8223 62.5469 12.8223ZM70.9661 12.8223Q73.5091 12.8223 74.9739 14.3984Q76.4388 15.9688 76.4388 18.6816L76.4388 20.0703L67.7493 20.0703Q67.8021 22.0625 68.7982 23.123Q69.7943 24.1777 71.5931 24.1777Q72.8411 24.1777 73.8138 23.9492Q74.7864 23.7207 75.8177 23.2637L75.8177 25.3789Q74.8333 25.8066 73.8489 26.0234Q72.8646 26.2402 71.4935 26.2402Q69.6009 26.2402 68.1712 25.4961Q66.7415 24.752 65.9388 23.2754Q65.136 21.7988 65.136 19.6426Q65.136 17.457 65.8685 15.9453Q66.6009 14.4336 67.9075 13.6309Q69.2142 12.8223 70.9661 12.8223ZM70.9661 14.791Q69.6009 14.791 68.7689 15.6816Q67.9427 16.5664 67.8021 18.2012L73.8958 18.2012Q73.8724 16.6895 73.1634 15.7402Q72.4544 14.791 70.9661 14.791ZM84.6941 12.8223Q87.2371 12.8223 88.7019 14.3984Q90.1668 15.9688 90.1668 18.6816L90.1668 20.0703L81.4773 20.0703Q81.5301 22.0625 82.5262 23.123Q83.5222 24.1777 85.3211 24.1777Q86.5691 24.1777 87.5418 23.9492Q88.5144 23.7207 89.5457 23.2637L89.5457 25.3789Q88.5613 25.8066 87.5769 26.0234Q86.5926 26.2402 85.2215 26.2402Q83.3289 26.2402 81.8992 25.4961Q80.4695 24.752 79.6668 23.2754Q78.864 21.7988 78.864 19.6426Q78.864 17.457 79.5965 15.9453Q80.3289 14.4336 81.6355 13.6309Q82.9422 12.8223 84.6941 12.8223ZM84.6941 14.791Q83.3289 14.791 82.4969 15.6816Q81.6707 16.5664 81.5301 18.2012L87.6238 18.2012Q87.6004 16.6895 86.8914 15.7402Q86.1824 14.791 84.6941 14.791ZM97.7776 26.2402Q95.4456 26.2402 94.0159 24.5645Q92.592 22.8828 92.592 19.5664Q92.592 16.2324 94.0335 14.5273Q95.4749 12.8223 97.8245 12.8223Q99.2893 12.8223 100.221 13.3789Q101.158 13.9297 101.739 14.7207L101.879 14.7207Q101.832 14.4102 101.756 13.7598Q101.686 13.1094 101.686 12.6055L101.686 7.75977L104.235 7.75977L104.235 26L102.242 26L101.809 24.2715L101.686 24.2715Q101.135 25.1094 100.198 25.6777Q99.2659 26.2402 97.7776 26.2402ZM98.3753 24.1543Q100.25 24.1543 101.018 23.1113Q101.785 22.0625 101.785 19.9766L101.785 19.5898Q101.785 17.334 101.053 16.127Q100.321 14.9141 98.3518 14.9141Q96.7932 14.9141 95.9963 16.1738Q95.2053 17.4336 95.2053 19.6133Q95.2053 21.7988 95.9963 22.9766Q96.7932 24.1543 98.3753 24.1543Z" fill="#FFFFFF" fill-opacity="1.000000" fill-rule="evenodd"/>
	<rect id="Rectangle 63" x="0.500000" y="2.000000" rx="6.000000" width="29.000000" height="29.000000" fill="#FFA182" fill-opacity="1.000000"/>
	<path id="K." d="M8.70972 11.2516L8.70972 21.6523C8.70972 22.495 9.39282 23.1781 10.2356 23.1781C11.0781 23.1781 11.7612 22.495 11.7612 21.6523L11.7612 11.2516C11.7612 10.4089 11.0781 9.72583 10.2356 9.72583C9.39282 9.72583 8.70972 10.4089 8.70972 11.2516ZM14.616 10.7L14.5388 10.9294C13.7583 13.2548 13.3682 14.4174 13.2659 15.6112C13.2087 16.2798 13.219 16.9523 13.2964 17.6188C13.4348 18.809 13.8604 19.9592 14.7112 22.2596C14.9155 22.8116 15.4419 23.1781 16.0305 23.1781C17.0063 23.1781 17.6855 22.2086 17.3523 21.2914L16.155 17.9956C15.8325 17.1079 15.8191 16.1373 16.1172 15.2412L17.3262 11.6055C17.6338 10.6804 16.9451 9.72583 15.9705 9.72583C15.3564 9.72583 14.8113 10.1179 14.616 10.7ZM19.1614 21.183Q19.0117 21.4688 19.0117 21.8329C19.0117 22.0635 19.0767 22.2877 19.2065 22.5055Q19.3721 22.7997 19.6201 22.9813Q20.0203 23.2742 20.6348 23.2742C20.8945 23.2742 21.1472 23.2166 21.3923 23.1013C21.9695 22.845 22.2581 22.4222 22.2581 21.8329C22.2581 21.5767 22.1931 21.3396 22.0632 21.1218C21.7603 20.6222 21.2842 20.3723 20.6348 20.3723C20.3608 20.3723 20.1011 20.4301 19.8557 20.5453Q19.3672 20.79 19.1614 21.183Z" fill="#232522" fill-opacity="1.000000" fill-rule="evenodd"/>
</svg>
