<svg width="110.000000" height="36.000000" viewBox="0 0 110 36" fill="none" xmlns="http://www.w3.org/2000/svg" xmlns:xlink="http://www.w3.org/1999/xlink">
	<desc>
			Created with Pixso.
	</desc>
	<defs/>
	<path id="Kreed" d="M49.9922 26L43.5352 18.5352L43.5352 26L40.7988 26L40.7988 9.31836L43.5352 9.31836L43.5352 16.9297L50.0156 9.31836L53.4492 9.31836L46.2012 17.6738L53.5664 26L49.9922 26ZM58.7272 14.6973C59.1295 14.0254 59.6627 13.502 60.3268 13.127C60.9908 12.748 61.7779 12.5586 62.6881 12.5586L62.6881 15.3945L61.9908 15.3945C60.9205 15.3945 60.108 15.666 59.5533 16.209C59.0025 16.752 58.7272 17.6953 58.7272 19.0391L58.7272 26L55.9908 26L55.9908 12.7754L58.7272 12.7754L58.7272 14.6973ZM77.3299 19.0625C77.3299 19.5586 77.2967 20.0078 77.2303 20.4102L67.1287 20.4102C67.2068 21.4648 67.5975 22.3125 68.3006 22.9531C69.0076 23.5938 69.8728 23.9141 70.8963 23.9141C72.3689 23.9141 73.408 23.2969 74.0135 22.0625L76.9666 22.0625C76.5682 23.2812 75.8436 24.2793 74.7928 25.0566C73.7459 25.8301 72.4471 26.2168 70.8963 26.2168C69.6307 26.2168 68.4978 25.9336 67.4978 25.3672C66.4978 24.7969 65.7146 23.9961 65.1482 22.9648C64.5818 21.9336 64.2986 20.7383 64.2986 19.3789C64.2986 18.0156 64.574 16.8184 65.1248 15.7871C65.6756 14.7559 66.451 13.9609 67.451 13.4023C68.451 12.8398 69.5994 12.5586 70.8963 12.5586C72.1424 12.5586 73.2537 12.832 74.2303 13.3789C75.2068 13.9219 75.9666 14.6855 76.5096 15.6699C77.0564 16.6543 77.3299 17.7852 77.3299 19.0625ZM74.4705 18.2012C74.4549 17.1934 74.0955 16.3848 73.3924 15.7754C72.6893 15.166 71.8162 14.8613 70.7732 14.8613C69.8318 14.8613 69.0252 15.1621 68.3533 15.7637C67.6814 16.3652 67.2811 17.1777 67.1521 18.2012L74.4705 18.2012ZM92.1379 19.0625C92.1379 19.5586 92.1047 20.0078 92.0383 20.4102L81.9367 20.4102C82.0148 21.4648 82.4055 22.3125 83.1086 22.9531C83.8156 23.5938 84.6808 23.9141 85.7043 23.9141C87.1769 23.9141 88.216 23.2969 88.8215 22.0625L91.7746 22.0625C91.3762 23.2812 90.6516 24.2793 89.6008 25.0566C88.5539 25.8301 87.2551 26.2168 85.7043 26.2168C84.4387 26.2168 83.3058 25.9336 82.3058 25.3672C81.3058 24.7969 80.5226 23.9961 79.9562 22.9648C79.3898 21.9336 79.1066 20.7383 79.1066 19.3789C79.1066 18.0156 79.382 16.8184 79.9328 15.7871C80.4836 14.7559 81.259 13.9609 82.259 13.4023C83.259 12.8398 84.4074 12.5586 85.7043 12.5586C86.9504 12.5586 88.0617 12.832 89.0383 13.3789C90.0148 13.9219 90.7746 14.6855 91.3176 15.6699C91.8644 16.6543 92.1379 17.7852 92.1379 19.0625ZM89.2785 18.2012C89.2629 17.1934 88.9035 16.3848 88.2004 15.7754C87.4973 15.166 86.6242 14.8613 85.5812 14.8613C84.6398 14.8613 83.8332 15.1621 83.1613 15.7637C82.4894 16.3652 82.0891 17.1777 81.9601 18.2012L89.2785 18.2012ZM93.9146 19.3262C93.9146 17.998 94.19 16.8223 94.7408 15.7988C95.2916 14.7754 96.0435 13.9805 96.9967 13.4141C97.9498 12.8438 99.0103 12.5586 100.178 12.5586C101.042 12.5586 101.893 12.748 102.733 13.127C103.573 13.502 104.241 14 104.737 14.6211L104.737 8.24023L107.497 8.24023L107.497 26L104.737 26L104.737 24.0078C104.288 24.6484 103.667 25.1777 102.874 25.5957C102.085 26.0098 101.178 26.2168 100.155 26.2168C99.0025 26.2168 97.9498 25.9258 96.9967 25.3438C96.0435 24.7578 95.2916 23.9414 94.7408 22.8945C94.19 21.8438 93.9146 20.6543 93.9146 19.3262ZM104.737 19.3789C104.737 18.4648 104.547 17.6719 104.169 17C103.794 16.3281 103.301 15.8164 102.692 15.4648C102.087 15.1133 101.432 14.9375 100.729 14.9375C100.026 14.9375 99.3697 15.1094 98.7603 15.4531C98.151 15.7969 97.6588 16.3008 97.2838 16.9648C96.9088 17.6289 96.7213 18.416 96.7213 19.3262C96.7213 20.2402 96.9088 21.041 97.2838 21.7285C97.6588 22.416 98.1549 22.9395 98.772 23.2988C99.3892 23.6582 100.042 23.8379 100.729 23.8379C101.432 23.8379 102.087 23.6621 102.692 23.3105C103.301 22.959 103.794 22.4434 104.169 21.7637C104.547 21.084 104.737 20.2891 104.737 19.3789Z" fill="#1E255E" fill-opacity="1.000000" fill-rule="evenodd"/>
	<rect id="Rectangle 63" y="3.000000" rx="6.000000" width="30.000000" height="30.000000" fill="#1E255E" fill-opacity="1.000000"/>
	<path id="K." d="M8.70972 12.2258L8.70972 23.6781C8.70972 24.2304 9.15747 24.6781 9.70972 24.6781L10.7614 24.6781C11.3136 24.6781 11.7614 24.2304 11.7614 23.6781L11.7614 12.2258C11.7614 11.6735 11.3136 11.2258 10.7614 11.2258L9.70972 11.2258C9.15747 11.2258 8.70972 11.6735 8.70972 12.2258ZM14.714 11.9076L12.7393 17.7906C12.6666 18.007 12.6703 18.2416 12.7494 18.4557L14.8094 24.025C14.9547 24.4175 15.3289 24.6781 15.7474 24.6781L16.6105 24.6781C17.3043 24.6781 17.7874 23.9888 17.5504 23.3367L15.7759 18.4518C15.6989 18.2401 15.6957 18.0086 15.7668 17.7949L17.5138 12.5414C17.729 11.894 17.2471 11.2258 16.5648 11.2258L15.662 11.2258C15.2323 11.2258 14.8507 11.5003 14.714 11.9076ZM19.8557 22.0453C19.2931 22.3272 19.0117 22.7563 19.0117 23.3329C19.0117 23.5635 19.0767 23.7877 19.2064 24.0055C19.495 24.518 19.9712 24.7742 20.6349 24.7742C20.8947 24.7742 21.1471 24.7166 21.3923 24.6013C21.9695 24.345 22.2581 23.9222 22.2581 23.3329C22.2581 23.0767 22.1931 22.8397 22.0634 22.6218C21.7604 22.1222 21.2842 21.8724 20.6349 21.8724C20.3607 21.8724 20.1011 21.93 19.8557 22.0453Z" fill="#FFFFFF" fill-opacity="1.000000" fill-rule="evenodd"/>
</svg>
